<?xml version="1.0" encoding="UTF-8"?><svg id="Calque_1" xmlns="http://www.w3.org/2000/svg" xmlns:xlink="http://www.w3.org/1999/xlink" viewBox="0 0 200 157"><defs><style>.cls-1{fill:url(#Dégradé_sans_nom_38);}.cls-2{fill:url(#Dégradé_sans_nom_20);}.cls-3{stroke-width:4px;}.cls-3,.cls-4{fill:none;stroke:#000;stroke-miterlimit:10;}</style><linearGradient id="Dégradé_sans_nom_20" x1="1.61" y1="79" x2="196.96" y2="79" gradientTransform="matrix(1, 0, 0, 1, 0, 0)" gradientUnits="userSpaceOnUse"><stop offset="0" stop-color="#f0d572"/><stop offset=".2" stop-color="#c49c48"/><stop offset=".37" stop-color="#efe8c0"/><stop offset=".57" stop-color="#efe8c0"/><stop offset=".8" stop-color="#c49c48"/><stop offset="1" stop-color="#efe8c0"/></linearGradient><radialGradient id="Dégradé_sans_nom_38" cx="92.38" cy="66.7" fx="92.38" fy="66.7" r="39.51" gradientTransform="matrix(1, 0, 0, 1, 0, 0)" gradientUnits="userSpaceOnUse"><stop offset=".4" stop-color="#efe8c0"/><stop offset=".96" stop-color="#c49c48"/></radialGradient></defs><g><rect class="cls-2" x="1.61" y="1.44" width="195.35" height="155.12" rx="40.83" ry="40.83"/><path d="M156.13,1.94c22.24,0,40.33,18.09,40.33,40.33V115.73c0,22.24-18.09,40.33-40.33,40.33H42.44c-22.24,0-40.33-18.09-40.33-40.33V42.27C2.11,20.03,20.2,1.94,42.44,1.94h113.69m0-1H42.44C19.61,.94,1.11,19.44,1.11,42.27V115.73c0,22.82,18.5,41.33,41.33,41.33h113.69c22.82,0,41.33-18.5,41.33-41.33V42.27c0-22.82-18.5-41.33-41.33-41.33h0Z"/></g><line class="cls-3" x1="99.39" y1=".94" x2="100" y2="157"/><polyline class="cls-4" points="2.01 33.66 99.52 33.66 196.56 33.66"/><polyline class="cls-4" points="197.46 64 128.85 64 99.64 64 69.29 64 1.33 64"/><polyline class="cls-4" points="197.46 94.33 127.54 94.33 99.76 94.33 70.59 94.33 1.65 94.33"/><polyline class="cls-4" points="3.37 129.23 99.07 129.23 99.89 129.23 195.2 129.23"/><g><path class="cls-1" d="M99.06,128.23c-16.05,0-29.12-11.35-29.12-25.31,0-8.13,4.54-15.82,12.15-20.57l1.36-.85-1.36-.85c-7.61-4.75-12.15-12.44-12.15-20.57,0-13.96,13.06-25.31,29.12-25.31s29.12,11.35,29.12,25.31c0,8.13-4.54,15.82-12.15,20.57l-1.36,.85,1.36,.85c7.61,4.75,12.15,12.44,12.15,20.57,0,13.96-13.06,25.31-29.12,25.31Z"/><path d="M99.07,35.77c15.5,0,28.12,10.91,28.12,24.31,0,7.78-4.37,15.15-11.68,19.72l-2.72,1.7,2.72,1.7c7.31,4.57,11.68,11.94,11.68,19.72,0,13.4-12.61,24.31-28.12,24.31s-28.12-10.91-28.12-24.31c0-7.78,4.37-15.15,11.68-19.72l2.72-1.7-2.72-1.7c-7.31-4.57-11.68-11.94-11.68-19.72,0-13.4,12.61-24.31,28.12-24.31m0-2c-16.63,0-30.12,11.78-30.12,26.31,0,8.83,4.98,16.65,12.62,21.42-7.64,4.77-12.62,12.59-12.62,21.42,0,14.53,13.48,26.31,30.12,26.31s30.12-11.78,30.12-26.31c0-8.83-4.98-16.65-12.62-21.42,7.64-4.77,12.62-12.59,12.62-21.42,0-14.53-13.48-26.31-30.12-26.31h0Z"/></g></svg>